<svg width="16" height="16" viewBox="0 0 16 16" fill="none" xmlns="http://www.w3.org/2000/svg">
<path d="M3 6C3 5.44772 2.55228 5 2 5C1.44772 5 1 5.44772 1 6C1 6.55228 1.44772 7 2 7C2.55228 7 3 6.55228 3 6Z" fill="#0C0C0B"/>
<path d="M6 6C6 5.44772 5.55228 5 5 5C4.44772 5 4 5.44772 4 6C4 6.55228 4.44772 7 5 7C5.55228 7 6 6.55228 6 6Z" fill="#0C0C0B"/>
<path d="M9 10C9 9.44772 8.55228 9 8 9C7.44772 9 7 9.44772 7 10C7 10.5523 7.44772 11 8 11C8.55228 11 9 10.5523 9 10Z" fill="#0C0C0B"/>
<path d="M12 6C12 5.44772 11.5523 5 11 5C10.4477 5 10 5.44772 10 6C10 6.5523 10.4477 7 11 7C11.5523 7 12 6.5523 12 6Z" fill="#0C0C0B"/>
<path d="M15 6C15 5.4477 14.5523 5 14 5C13.4477 5 13 5.4477 13 6C13 6.5523 13.4477 7 14 7C14.5523 7 15 6.5523 15 6Z" fill="#0C0C0B"/>
<path d="M14 11C14.5523 11 15 10.5523 15 10C15 9.44772 14.5523 9 14 9C13.4477 9 13 9.44772 13 10C13 10.5523 13.4477 11 14 11Z" fill="#0C0C0B"/>
<path d="M11 11C11.5523 11 12 10.5523 12 10C12 9.44772 11.5523 9 11 9C10.4477 9 10 9.44772 10 10C10 10.5523 10.4477 11 11 11Z" fill="#0C0C0B"/>
<path d="M8 7C8.55228 7 9 6.55228 9 6C9 5.44772 8.55228 5 8 5C7.44772 5 7 5.44772 7 6C7 6.55228 7.44772 7 8 7Z" fill="#0C0C0B"/>
<path d="M5 11C5.55228 11 6 10.5523 6 10C6 9.44772 5.55228 9 5 9C4.44772 9 4 9.44772 4 10C4 10.5523 4.44772 11 5 11Z" fill="#0C0C0B"/>
<path d="M2 11C2.55228 11 3 10.5523 3 10C3 9.4477 2.55228 9 2 9C1.44772 9 1 9.4477 1 10C1 10.5523 1.44772 11 2 11Z" fill="#0C0C0B"/>
</svg>
